<svg width="300" height="300" viewBox="0 0 300 300" fill="none" xmlns="http://www.w3.org/2000/svg">
<path fill-rule="evenodd" clip-rule="evenodd" d="M150 240C199.706 240 240 199.706 240 150C240 100.294 199.706 60 150 60C100.294 60 60 100.294 60 150C60 199.706 100.294 240 150 240ZM152.753 210.33C141.149 210.301 141.061 203.397 141.061 203.397V113.048H135.527C130.671 113.048 130.671 107.335 130.671 107.335V99.0702C130.671 94.4444 135.527 92.5905 135.527 92.5905H156.857C164.357 92.5905 164.357 99.0702 164.357 99.0702V203.397C164.357 203.397 164.357 210.358 152.753 210.33Z" fill="#C8C8C8"/>
</svg>
