<svg width="300" height="300" viewBox="0 0 300 300" fill="none" xmlns="http://www.w3.org/2000/svg">
<path fill-rule="evenodd" clip-rule="evenodd" d="M144.928 75H152.903C152.968 77.6965 152.961 80.3862 152.946 83.0838C155.613 83.077 158.285 83.0907 160.95 83.069C160.972 85.7155 160.972 88.362 160.892 91.0084C158.248 91.0084 155.597 91.0232 152.954 91.0084C152.954 93.6106 152.946 96.2218 152.968 98.8318C150.339 98.9979 147.709 98.9615 145.079 98.9399C145.065 96.2946 145.065 93.6401 145.051 90.9868C142.377 91.0232 139.712 91.0084 137.047 91.0153C137.003 88.3768 137.01 85.7303 137.003 83.0907C139.691 83.0838 142.377 83.077 145.059 83.0907C145 80.3941 145.24 77.6817 144.928 75" fill="#C8C8C8"/>
<path fill-rule="evenodd" clip-rule="evenodd" d="M99.1968 97.3782C107.232 95.4447 116.053 102.13 115.878 110.491C116.495 117.8 110.102 124.652 102.829 124.791C96.3113 125.349 89.9322 120.546 88.5597 114.182C86.5461 106.902 91.8075 98.7507 99.1968 97.3782" fill="#C8C8C8"/>
<path fill-rule="evenodd" clip-rule="evenodd" d="M130.835 97.3685C138.87 95.4642 147.727 102.165 147.503 110.529C148.149 118.051 141.299 125.02 133.816 124.824C127.214 125.107 121.046 119.926 120.006 113.435C118.529 106.307 123.686 98.6979 130.835 97.3685" fill="#C8C8C8"/>
<path fill-rule="evenodd" clip-rule="evenodd" d="M163.419 97.3715C171.225 95.5173 179.751 101.746 180.05 109.805C180.677 115.277 177.538 120.78 172.667 123.273C167.547 126.027 160.767 125.053 156.594 121.027C151.912 116.652 150.936 108.948 154.447 103.577C156.419 100.402 159.726 98.0756 163.419 97.3715" fill="#C8C8C8"/>
<path fill-rule="evenodd" clip-rule="evenodd" d="M195.153 97.3421C202.144 95.7718 209.723 100.548 211.329 107.529C212.733 112.902 210.593 118.944 206.063 122.18C201.852 125.321 195.808 125.715 191.226 123.147C186.221 120.552 183.247 114.654 184.112 109.092C184.774 103.356 189.459 98.352 195.153 97.3421" fill="#C8C8C8"/>
<path fill-rule="evenodd" clip-rule="evenodd" d="M101.67 145.919C101.464 140.174 101.559 134.414 101.618 128.668C133.856 128.765 166.094 128.691 198.333 128.706C198.34 134.429 198.34 140.144 198.333 145.86C166.109 145.897 133.885 145.784 101.67 145.919" fill="#C8C8C8"/>
<path fill-rule="evenodd" clip-rule="evenodd" d="M22 160.297C30.1411 160.297 38.2822 160.291 46.4313 160.304C46.4452 168.072 46.4163 175.849 46.4382 183.624C54.5136 175.915 62.4043 168.022 70.4796 160.313C78.6876 160.291 86.8944 160.291 95.1013 160.313C85.6405 169.901 75.9224 179.242 66.5343 188.898C78.3646 200.337 89.7923 212.202 101.724 223.516C101.827 202.452 101.739 181.379 101.768 160.304C110.093 160.291 118.417 160.291 126.743 160.304C126.743 176.287 126.728 192.268 126.743 208.251C140.039 208.216 153.33 208.296 166.619 208.206C166.802 213.629 166.65 219.056 166.706 224.475C134.392 224.475 102.069 224.504 69.7528 224.462C62.1113 216.743 54.367 209.13 46.6874 201.45C46.5778 209.137 46.7024 216.817 46.6217 224.504C38.4137 224.446 30.2068 224.511 22 224.469V160.297" fill="#C8C8C8"/>
<path fill-rule="evenodd" clip-rule="evenodd" d="M172.47 160.358C185.91 160.314 199.35 160.447 212.791 160.294C217.034 171.76 220.746 183.427 224.753 194.981C225.084 194.461 225.555 194.023 225.725 193.415C229.554 182.386 233.473 171.387 237.341 160.365C250.855 160.353 264.369 160.346 277.882 160.375V224.439C269.611 224.543 261.332 224.478 253.061 224.478C253.047 209.73 253.134 194.972 253.016 180.216C251.862 180.86 251.745 182.315 251.251 183.401C246.451 197.106 241.524 210.766 236.724 224.471C228.944 224.471 221.159 224.573 213.386 224.42C208.512 210.409 203.469 196.465 198.549 182.475C198.372 181.693 197.931 181.123 197.241 180.757C197.218 195.33 197.248 209.911 197.234 224.491C188.976 224.491 180.72 224.491 172.463 224.485C172.478 203.115 172.455 181.738 172.47 160.358" fill="#C8C8C8"/>
</svg>
