<svg width="300" height="300" viewBox="0 0 300 300" fill="none" xmlns="http://www.w3.org/2000/svg">
<path fill-rule="evenodd" clip-rule="evenodd" d="M136.438 172C107.579 172 84.1873 148.495 84.1873 119.5C84.1873 90.505 107.579 67 136.438 67V172ZM201.749 172C172.89 172 149.498 148.495 149.498 119.5C149.498 90.505 172.897 67 201.749 67C230.608 67 254 90.505 254 119.5C254 148.495 230.605 172 201.749 172ZM71.1236 74.0387V164.957C63.1661 160.331 56.5646 153.696 51.9799 145.719C47.3952 137.741 44.9883 128.7 45 119.5C45 100.071 55.508 83.1175 71.1236 74.0387Z" fill="#C8C8C8"/>
<path fill-rule="evenodd" clip-rule="evenodd" d="M100.725 188V197.807C101.59 196.703 102.692 195.81 103.949 195.192C105.233 194.554 106.683 194.234 108.3 194.234C111.444 194.234 113.905 195.192 115.678 197.111C117.455 199.027 118.341 201.7 118.341 205.13V220.252H112.368V205.783C112.368 203.78 111.892 202.203 110.94 201.054C109.987 199.907 108.558 199.333 106.654 199.333C105.846 199.333 105.083 199.486 104.361 199.79C103.644 200.091 103.001 200.545 102.476 201.119C101.913 201.752 101.486 202.494 101.221 203.299C100.906 204.255 100.753 205.256 100.769 206.262V220.252H94.8816V188H100.725ZM71.3406 216.898C72.5397 218.101 73.9578 219.062 75.5181 219.731C77.1186 220.429 78.8427 220.778 80.6905 220.778C82.1618 220.778 83.533 220.582 84.8025 220.188C86.028 219.818 87.1888 219.26 88.2434 218.533C89.2664 217.822 90.1779 216.963 90.9478 215.983C91.7253 215 92.3664 213.916 92.8537 212.76L87.616 210.491C87.069 211.849 86.1637 213.032 84.9971 213.915C83.8277 214.8 82.4218 215.244 80.7759 215.244C79.7487 215.252 78.7312 215.043 77.7897 214.632C76.8862 214.245 76.0687 213.681 75.3849 212.974C74.7011 212.267 74.1647 211.431 73.8068 210.515C73.4308 209.564 73.24 208.55 73.2448 207.528C73.2448 206.453 73.4321 205.443 73.8086 204.499C74.1832 203.556 74.7107 202.733 75.3872 202.037C76.0656 201.34 76.8603 200.788 77.7697 200.38C78.7033 199.968 79.7139 199.76 80.7341 199.77C82.2927 199.77 83.6694 200.183 84.8661 201.012C86.0621 201.837 86.9883 202.997 87.5287 204.346L92.7665 202.125C92.2854 200.979 91.6442 199.907 90.8623 198.941C90.0815 197.983 89.1627 197.147 88.1361 196.459C87.0734 195.75 85.9138 195.199 84.6933 194.824C83.3967 194.425 82.0469 194.227 80.6905 194.236C78.9148 194.221 77.1548 194.569 75.5181 195.259C73.9522 195.918 72.5323 196.881 71.3406 198.093C70.1498 199.311 69.2023 200.745 68.549 202.32C67.8632 203.969 67.5169 205.741 67.5305 207.528C67.5305 209.358 67.8706 211.079 68.549 212.693C69.1986 214.263 70.1468 215.691 71.3406 216.899V216.898ZM27.8016 198.548V194.756H22V220.252H27.8434V206.656C27.8434 204.447 28.2835 202.857 29.1638 201.882C30.044 200.908 31.3353 200.422 33.0375 200.422C33.8741 200.422 34.5598 200.517 35.0926 200.706C35.6273 200.895 36.1111 201.134 36.5439 201.425L38.7518 195.847C37.385 195.103 35.8482 194.727 34.2924 194.756C31.1461 194.756 28.9819 196.02 27.7998 198.548H27.8016ZM139.979 213.062C139.315 213.787 138.521 214.355 137.597 214.761C136.641 215.175 135.608 215.383 134.567 215.372C133.551 215.374 132.545 215.173 131.609 214.78C130.672 214.387 129.823 213.811 129.113 213.084C128.411 212.356 127.859 211.497 127.49 210.555C127.098 209.564 126.9 208.506 126.907 207.441C126.907 206.335 127.101 205.303 127.49 204.345C127.859 203.418 128.409 202.574 129.107 201.863C129.806 201.152 130.639 200.587 131.559 200.203C132.509 199.795 133.533 199.588 134.567 199.595C135.664 199.595 136.675 199.797 137.597 200.203C138.521 200.611 139.315 201.17 139.979 201.882C140.641 202.593 141.169 203.43 141.558 204.388C141.95 205.357 142.149 206.393 142.143 207.439C142.143 208.544 141.949 209.575 141.558 210.535C141.186 211.464 140.652 212.32 139.979 213.061V213.062ZM125.088 217.289C126.243 218.404 127.603 219.285 129.093 219.882C130.529 220.468 132.065 220.771 133.616 220.775C135.231 220.788 136.828 220.439 138.29 219.751C139.679 219.111 140.896 218.147 141.838 216.939V220.254H147.683V194.756H141.838V197.805C140.884 196.677 139.685 195.783 138.333 195.19C136.876 194.542 135.296 194.215 133.701 194.232C132.115 194.232 130.564 194.529 129.049 195.124C127.548 195.711 126.179 196.593 125.022 197.718C123.855 198.852 122.916 200.238 122.209 201.881C121.503 203.523 121.149 205.403 121.149 207.524C121.149 209.617 121.511 211.483 122.233 213.126C122.953 214.765 123.904 216.155 125.088 217.287V217.289ZM156.647 194.756V198.548C157.831 196.02 159.996 194.756 163.14 194.756C164.064 194.756 164.893 194.858 165.63 195.062C166.365 195.264 167.021 195.527 167.598 195.845L165.392 201.425C164.94 201.125 164.452 200.884 163.94 200.706C163.407 200.517 162.722 200.422 161.885 200.422C160.183 200.422 158.892 200.908 158.011 201.882C157.131 202.857 156.691 204.447 156.691 206.654V220.252H150.848V194.756H156.647ZM186.459 213.059C187.123 212.334 187.649 211.493 188.038 210.533C188.432 209.549 188.631 208.497 188.623 207.437C188.628 206.392 188.43 205.357 188.038 204.388C187.67 203.462 187.135 202.612 186.459 201.881C185.788 201.164 184.977 200.593 184.077 200.203C183.121 199.79 182.088 199.582 181.047 199.593C179.979 199.593 178.977 199.795 178.039 200.203C177.125 200.595 176.295 201.157 175.593 201.861C174.892 202.571 174.342 203.415 173.972 204.343C173.577 205.326 173.378 206.378 173.386 207.439C173.386 208.542 173.581 209.58 173.972 210.553C174.361 211.527 174.901 212.37 175.593 213.082C176.291 213.796 177.122 214.366 178.039 214.76C178.989 215.169 180.013 215.376 181.047 215.37C182.143 215.37 183.155 215.166 184.077 214.76C184.981 214.367 185.793 213.788 186.459 213.061V213.059ZM188.223 194.756H194.067V220.258C194.096 225.95 189.589 232.84 183.22 232.982C182.031 233.009 181.132 233 180.219 232.991H180.217C179.621 232.985 179.017 232.978 178.322 232.982L178.315 231.656L178.295 227.566C184.99 227.529 188.443 226.083 188.398 216.823L188.381 216.812C187.452 218.047 186.239 219.04 184.846 219.708C183.377 220.419 181.765 220.785 180.134 220.778C178.582 220.782 177.045 220.487 175.605 219.908C174.113 219.319 172.75 218.446 171.59 217.337C170.4 216.209 169.44 214.827 168.711 213.19C167.981 211.551 167.61 209.686 167.599 207.595C167.589 205.474 167.932 203.591 168.631 201.944C169.329 200.3 170.26 198.909 171.422 197.769C172.572 196.638 173.936 195.749 175.434 195.153C176.912 194.557 178.489 194.245 180.083 194.236C181.685 194.212 183.271 194.554 184.72 195.237C186.087 195.873 187.291 196.813 188.24 197.985L188.223 194.756ZM205.617 200.857C204.34 201.806 203.394 203.133 202.913 204.651H217.282C216.849 202.935 216.013 201.637 214.772 200.75C213.532 199.863 212.002 199.42 210.184 199.42C208.423 199.42 206.903 199.899 205.617 200.859V200.857ZM210.4 220.777C208.411 220.777 206.592 220.434 204.948 219.751C203.365 219.111 201.928 218.154 200.727 216.939C199.548 215.733 198.621 214.304 198 212.735C197.345 211.092 197.014 209.338 197.026 207.57C197.013 205.776 197.359 203.998 198.042 202.34C198.689 200.761 199.638 199.325 200.836 198.113C202.035 196.91 203.452 195.949 205.011 195.279C206.645 194.576 208.406 194.22 210.184 194.234C211.97 194.217 213.742 194.55 215.4 195.215C216.952 195.835 218.359 196.769 219.534 197.96C220.701 199.155 221.62 200.569 222.24 202.121C222.889 203.72 223.213 205.465 223.213 207.353V209.575H202.609C203.015 211.378 203.893 212.829 205.25 213.933C206.606 215.038 208.323 215.59 210.4 215.59H212.797V220.777H210.4V220.777ZM44.8098 204.567C45.2877 203.062 46.2262 201.746 47.4924 200.804C48.7672 199.854 50.2768 199.378 52.0227 199.378C53.8268 199.378 55.3436 199.817 56.5748 200.697C57.8042 201.576 58.6354 202.864 59.0646 204.567H44.8098V204.567ZM42.642 216.757C43.8343 217.961 45.2587 218.91 46.8285 219.546C48.4599 220.223 50.2622 220.562 52.2373 220.562C55.0435 220.562 57.426 219.935 59.3847 218.68C61.3156 217.46 62.8928 215.753 63.9586 213.731L59.1937 210.963C58.6227 212.282 57.6837 213.408 56.4894 214.206C55.2854 215.013 53.8705 215.417 52.2373 215.417C50.1767 215.417 48.4726 214.871 47.1286 213.774C45.7828 212.68 44.9098 211.238 44.5097 209.451H64.9462V207.247C64.9462 205.372 64.6243 203.643 63.9805 202.057C63.3666 200.518 62.4549 199.116 61.2979 197.931C60.1329 196.749 58.7367 195.822 57.1968 195.206C55.552 194.547 53.7942 194.217 52.0227 194.234C50.1913 194.234 48.4817 194.58 46.8922 195.272C45.345 195.935 43.9388 196.888 42.7493 198.08C41.5612 199.283 40.6201 200.708 39.9794 202.274C39.3006 203.919 38.9574 205.683 38.9701 207.462C38.9701 209.278 39.292 210.986 39.9358 212.585C40.5522 214.142 41.4722 215.559 42.642 216.756V216.757ZM218.757 216.304C219.219 215.827 219.852 215.588 220.652 215.588C221.454 215.588 222.081 215.827 222.533 216.304C222.987 216.781 223.213 217.415 223.213 218.198C223.213 218.963 222.982 219.582 222.518 220.059C222.054 220.536 221.421 220.777 220.621 220.777C219.821 220.777 219.193 220.536 218.741 220.059C218.288 219.582 218.06 218.963 218.06 218.198C218.06 217.415 218.293 216.783 218.757 216.304ZM230.122 219.09C230.721 219.692 231.43 220.173 232.21 220.507C233.01 220.855 233.872 221.03 234.796 221.03C235.532 221.03 236.216 220.931 236.853 220.735C238.067 220.365 239.139 219.632 239.924 218.633C240.314 218.14 240.632 217.602 240.877 217.02L238.259 215.887C237.985 216.566 237.532 217.157 236.949 217.599C236.365 218.041 235.662 218.262 234.839 218.262C234.326 218.266 233.817 218.163 233.346 217.958C232.895 217.763 232.487 217.482 232.145 217.128C231.803 216.775 231.534 216.357 231.355 215.9C231.167 215.424 231.071 214.918 231.073 214.406C231.073 213.867 231.168 213.363 231.355 212.891C231.533 212.434 231.799 212.016 232.139 211.663C232.479 211.309 232.886 211.027 233.335 210.831C233.79 210.629 234.283 210.527 234.818 210.527C235.598 210.527 236.285 210.733 236.884 211.146C237.484 211.562 237.926 212.117 238.215 212.815L240.834 211.704C240.594 211.13 240.273 210.594 239.881 210.112C239.491 209.633 239.032 209.214 238.519 208.87C237.417 208.134 236.12 207.747 234.796 207.759C233.872 207.759 233.01 207.93 232.21 208.271C231.427 208.601 230.718 209.082 230.122 209.688C229.51 210.31 229.027 211.047 228.7 211.856C228.373 212.666 228.209 213.531 228.216 214.404C228.21 215.273 228.375 216.134 228.702 216.938C229.03 217.742 229.512 218.473 230.122 219.09V219.09ZM250.422 217.958C251.316 217.555 252.016 216.816 252.37 215.9C252.557 215.426 252.652 214.929 252.652 214.406C252.652 213.869 252.557 213.363 252.37 212.891C252.018 211.974 251.317 211.234 250.422 210.833C249.966 210.628 249.472 210.523 248.972 210.527C248.452 210.527 247.967 210.629 247.512 210.831C247.057 211.035 246.666 211.31 246.343 211.66C245.66 212.411 245.285 213.391 245.293 214.406C245.293 214.929 245.386 215.426 245.575 215.9C245.762 216.369 246.019 216.781 246.343 217.129C246.666 217.479 247.057 217.754 247.512 217.958C247.967 218.16 248.452 218.262 248.972 218.262C249.493 218.262 249.974 218.16 250.422 217.958ZM246.408 220.518C245.625 220.189 244.916 219.707 244.32 219.101C243.725 218.492 243.251 217.775 242.923 216.989C242.582 216.171 242.409 215.293 242.414 214.406C242.401 212.643 243.086 210.947 244.32 209.69C244.928 209.073 245.652 208.585 246.451 208.253C247.25 207.922 248.108 207.754 248.972 207.759C249.882 207.759 250.733 207.93 251.526 208.271C252.319 208.611 253.015 209.085 253.615 209.688C254.23 210.308 254.716 211.044 255.045 211.854C255.373 212.664 255.539 213.531 255.531 214.404C255.536 215.275 255.369 216.138 255.04 216.944C254.712 217.75 254.227 218.483 253.615 219.101C253.015 219.704 252.319 220.176 251.526 220.518C250.719 220.861 249.849 221.035 248.972 221.028C248.063 221.028 247.208 220.859 246.408 220.518ZM259.968 209.502V208.021H257.067V220.769H259.99V213.709C259.99 212.574 260.259 211.724 260.801 211.159C261.063 210.881 261.381 210.662 261.733 210.515C262.086 210.369 262.465 210.298 262.847 210.309C263.725 210.309 264.389 210.571 264.837 211.094C265.284 211.616 265.508 212.336 265.508 213.25V220.768H268.474V213.643C268.474 212.525 268.74 211.689 269.272 211.137C269.529 210.868 269.838 210.654 270.181 210.512C270.525 210.369 270.894 210.3 271.266 210.309C272.173 210.309 272.859 210.582 273.321 211.126C273.783 211.673 274.014 212.409 274.014 213.337V220.768H277V213.099C277 211.442 276.567 210.138 275.701 209.187C274.836 208.235 273.552 207.759 271.85 207.759C271.027 207.74 270.213 207.932 269.486 208.317C268.758 208.702 268.141 209.268 267.694 209.959C267.331 209.276 266.778 208.713 266.103 208.338C265.419 207.952 264.578 207.759 263.582 207.759C262.803 207.759 262.107 207.916 261.494 208.227C260.894 208.528 260.371 208.965 259.968 209.502V209.502Z" fill="#C8C8C8"/>
</svg>
