<svg width="300" height="300" viewBox="0 0 300 300" fill="none" xmlns="http://www.w3.org/2000/svg">
<path fill-rule="evenodd" clip-rule="evenodd" d="M54.9506 159.373C54.9468 169.027 48.6454 175.575 30.9001 175.521C16.2387 175.485 5 167.754 5 160.161L19.906 160.199C21.3585 162.728 25.1669 164.703 31.2256 164.732C37.3219 164.76 41.183 163.204 41.183 160.282C41.183 158.105 39.4782 155.51 29.9743 154.857C15.3977 153.856 7.13749 147.562 6.84772 140.452C6.53161 132.713 15.3638 125.523 29.9743 125.565C45.3149 125.608 53.3136 133.367 54.3447 141.806H39.9336C39.5516 137.221 36.4733 134.897 29.9743 134.63C23.3907 134.357 20.6341 137.076 20.5607 139.364C20.4516 142.738 24.8865 144.315 31.6903 145.137C49.3641 147.272 54.1528 152.883 54.9506 159.373" fill="#C8C8C8"/>
<path fill-rule="evenodd" clip-rule="evenodd" d="M197.834 141.244C197.788 139.934 197.308 138.545 195.675 137.768C194.495 137.209 192.514 136.847 186.825 136.878H175.966L175.947 146.259H188.535C191.447 146.259 194.874 146.535 196.557 144.934C197.668 143.878 197.889 142.856 197.834 141.244ZM213.504 174.803H196.534L187.36 155.992H175.949L176.105 174.803H161.642V127.175H191.571C198.404 127.168 203.459 128.382 207.229 131.063C210.751 133.559 212.044 136.807 212.047 140.92C212.053 143.832 211.59 146.413 209.722 148.565C207.86 150.716 205.323 152.737 201.755 153.984L213.504 174.803V174.803Z" fill="#C8C8C8"/>
<path fill-rule="evenodd" clip-rule="evenodd" d="M235.247 174.249L219.631 174.225L219.719 126.907L235.335 126.931L235.247 174.249" fill="#C8C8C8"/>
<path fill-rule="evenodd" clip-rule="evenodd" d="M280.78 150.558C280.794 146.704 279.392 143.161 276.956 140.503C274.278 137.585 270.299 136.487 265.784 136.474L259.225 136.459V164.34L265.954 164.338C270.386 164.349 274.254 163.622 276.952 160.681C279.409 157.999 280.769 154.418 280.78 150.558ZM294.884 151.11C294.863 157.861 292.147 163.42 286.744 167.795C281.341 172.166 274.375 174.259 266.866 174.257L244.935 174.232L244.944 126.896L264.892 126.998C274.592 127.026 282.11 129.343 287.443 133.951C292.431 138.275 294.908 143.994 294.884 151.11V151.11Z" fill="#C8C8C8"/>
<path fill-rule="evenodd" clip-rule="evenodd" d="M105.217 149.63C105.113 133.582 114.231 124.335 131.32 124.34C144.587 124.344 154.186 130.551 155.752 144.625L142.967 144.631C141.713 138.351 137.273 135.746 131.252 135.769C123.747 135.795 118.017 140.033 117.963 149.575C117.965 160.127 124.493 164.535 131.205 164.495C139.099 164.45 142.258 160.634 142.967 155.671L155.754 155.654C155.278 169.672 146.273 175.888 132.07 175.861C113.829 175.827 105.221 165.03 105.217 149.63" fill="#C8C8C8"/>
<path fill-rule="evenodd" clip-rule="evenodd" d="M103.431 174.803H61.095V127.175H100.092V136.859L74.7999 136.864L74.7942 146.24L96.6813 146.251V155.995H74.7961L74.7904 164.862H103.431V174.803" fill="#C8C8C8"/>
</svg>
