<svg width="300" height="300" viewBox="0 0 300 300" fill="none" xmlns="http://www.w3.org/2000/svg">
<path d="M31.8586 141.325C31.8586 151.5 62.3556 146.55 62.3556 169.65C62.3556 182.3 51.6404 190 37.6283 190C25.5394 190 17.8465 184.225 14 178.725L23.6162 169.1C26.6384 172.95 31.0343 176.25 38.1778 176.25C42.8485 176.25 46.1455 174.05 46.1455 170.475C46.1455 160.575 15.6485 164.425 15.6485 141.6C15.6485 129.775 25.8141 122.625 39.002 122.625C49.9919 122.625 56.3111 127.575 59.8828 132.25L49.9919 142.15C48.0687 139.675 44.497 136.1 38.4525 136.1C34.3313 136.1 31.8586 138.3 31.8586 141.325ZM194.234 127.85V102H209.895V189.175H194.234V184.775C189.014 188.075 182.695 190 175.826 190C157.143 190 141.758 174.875 141.758 156.175C141.758 137.475 157.143 122.35 175.826 122.35C179.673 122.35 183.244 122.9 186.541 124L194.234 137.2V134.175V127.85ZM175.826 174.325C185.992 174.325 194.234 166.075 194.234 156.175C194.234 146.275 185.992 138.025 175.826 138.025C165.661 138.025 157.418 146.275 157.418 156.175C157.693 166.35 165.935 174.325 175.826 174.325ZM101.37 124.275C120.602 124.275 135.438 138.3 135.438 157.275C135.438 176.25 121.152 190 101.37 190C81.8626 190 67.5758 176.25 67.5758 157.275C67.5758 138.3 82.4121 124.275 101.37 124.275ZM101.37 175.425C111.261 175.425 118.679 168 118.679 157.275C118.679 146.55 111.261 138.85 101.37 138.85C91.4788 138.85 84.0606 146.55 84.0606 157.275C84.3354 168 91.4788 175.425 101.37 175.425ZM270.339 123.45H286V189.175H270.339V183.675C264.844 187.8 257.976 190 250.283 190C231.6 190 216.214 174.875 216.214 156.175C216.214 137.75 231.325 122.625 250.283 122.625C254.679 122.625 259.075 123.45 262.921 125.1L270.339 137.75V128.95V123.45ZM250.283 174.325C260.448 174.325 268.691 166.075 268.691 156.175C268.691 146.275 260.448 138.025 250.283 138.025C240.117 138.025 231.875 146.275 231.875 156.175C231.875 166.35 240.117 174.325 250.283 174.325Z" fill="#C8C8C8"/>
</svg>
