<svg width="300" height="300" viewBox="0 0 300 300" fill="none" xmlns="http://www.w3.org/2000/svg">
<path fill-rule="evenodd" clip-rule="evenodd" d="M192.65 218.751C203.586 218.751 209.522 211.503 209.522 201.337V149.472H232.776V202.498C232.544 225.838 213.816 235 192.65 235C171.483 235 152.76 225.838 152.528 202.498V149.472H175.783V201.337C175.783 211.503 181.718 218.751 192.65 218.751" fill="#C8C8C8"/>
<path fill-rule="evenodd" clip-rule="evenodd" d="M92.9149 233.944H116.05V165.86H141.969V149.472H67V165.86H92.9149V233.944" fill="#C8C8C8"/>
<path fill-rule="evenodd" clip-rule="evenodd" d="M148.298 107.782C142.64 109.545 136.802 108.135 136.82 100.606C136.828 89.1336 163.916 79.52 167.675 69.4928C168.603 66.9948 168.66 64.9362 167.461 65.0015C166.599 65.0494 167.272 66.2941 165.373 68.1872C154.153 79.3502 135.349 79.3328 120.922 85.7608C111.461 89.9866 83.7339 102.96 90.1186 131.906C90.4205 133.277 91.2476 137.885 92.0922 137.885C93.0768 137.885 93.068 135.148 93.0418 131.823C92.8273 114.589 113.347 109.784 120.024 98.5254C120.821 97.1762 122.204 95.2875 122.532 96.1666C122.689 96.5887 122.589 97.2154 122.317 98.4122C120.23 107.665 110.498 113.605 113.255 120.216C116.826 128.803 127.144 122.401 130.312 116.882C131.161 115.363 131.634 114.393 132.203 114.589C132.632 114.737 132.614 116.482 132.347 118.049C130.658 128.006 128.352 133.599 121.022 139.265C118.681 141.08 114.996 141.458 115.478 142.851C115.6 143.212 117.189 143.173 118.458 143.047C137.971 141.807 154.289 118.923 158.612 103.979C159.067 102.925 159.203 101.937 158.726 101.567C158.135 101.115 157.282 102.155 156.407 102.921C154.179 104.871 151.116 106.899 148.298 107.782" fill="#C8C8C8"/>
</svg>
