<svg width="300" height="300" viewBox="0 0 300 300" fill="none" xmlns="http://www.w3.org/2000/svg">
<g clip-path="url(#clip0_1_6)">
<path d="M277.584 235.703L268.746 225.876L277.096 217.583H274.728L266.631 225.804V211.318H264.751V235.712H266.631V226.025L275.185 235.712L277.584 235.703ZM255.321 236.052C259.636 236.052 261.756 234.762 261.756 230.824C261.756 226.99 259.6 226.297 257.721 225.804L254.381 224.944C252.782 224.527 252.018 224.002 252.018 221.911C252.018 219.507 253.098 219.054 256.053 219.054C257.76 219.05 259.462 219.226 261.132 219.579V217.791C259.462 217.437 257.76 217.255 256.053 217.248C252.086 217.248 250.107 218.466 250.107 221.915C250.107 224.912 251.115 225.989 253.794 226.691L257.445 227.632C258.977 228.013 259.844 228.574 259.844 231.082C259.844 233.589 258.801 234.25 255.425 234.25C253.612 234.204 251.812 233.924 250.071 233.417V235.192C251.77 235.752 253.546 236.042 255.335 236.052H255.321ZM241.856 218.398L241.617 217.561H240.049V235.667H241.928V219.43H248.223V217.248L241.856 218.398ZM235.002 225.491H224.754C224.79 219.57 226.737 219.045 230.388 219.045C233.483 219.045 234.979 220.127 234.979 224.025L235.002 225.491ZM236.881 224.726C236.881 218.389 234.238 217.235 230.131 217.235C225.716 217.235 222.901 218.525 222.901 226.12C222.901 232.358 223.877 236.052 230.483 236.052C232.393 236.071 234.295 235.788 236.118 235.215V233.436C234.258 234 232.322 234.27 230.379 234.237C225.684 234.237 224.921 231.937 224.781 227.13H236.886L236.881 224.726ZM208.415 231.24C208.415 228.909 208.799 227.967 211.51 227.759L217.705 227.306V233.512C215.74 233.981 213.735 234.26 211.718 234.345C209.147 234.345 208.415 233.757 208.415 231.245V231.24ZM213.313 217.248C211.377 217.262 209.445 217.436 207.538 217.769V219.548C209.428 219.229 211.342 219.065 213.259 219.059C217.257 219.059 217.678 220.141 217.678 222.055V225.713L211.483 226.166C208.008 226.446 206.44 227.7 206.44 231.254C206.44 234.671 207.66 236.066 211.555 236.066C213.466 236.066 215.378 235.473 217.745 234.599L218.129 235.717H219.553V222.228C219.553 218.498 218.161 217.248 213.326 217.248H213.313ZM180.522 235.717H182.365V214.623L190.576 234.689C190.747 235.142 190.991 235.282 191.303 235.282H192.175C192.487 235.282 192.731 235.142 192.903 234.689L201.113 214.587V235.703H202.992V211.309H200.625L191.755 233.037L182.957 211.309H180.522V235.717ZM167.726 217.61L162.055 233.291L156.181 217.61H154.197L161.119 235.346L158.476 242H160.392L169.678 217.61H167.726ZM146.656 219.059C150.234 219.059 151.247 220.697 151.247 227.107C151.247 233.626 149.439 234.25 146.236 234.25C144.516 234.235 142.803 234.036 141.125 233.657V219.674C142.941 219.269 144.795 219.062 146.656 219.059V219.059ZM147.071 217.248C145.003 217.322 142.969 217.807 141.089 218.674V211.309H139.209V235.703H140.601L140.949 234.658C142.481 235.251 144.6 236.052 146.412 236.052C150.478 236.052 153.189 234.762 153.189 227.094C153.189 219.426 151.558 217.248 147.071 217.248" fill="#C8C8C8"/>
<path d="M187.657 122.894V194.552H209.513V122.894H187.657ZM33.4401 107.368V122.894H21.4163V140.295H33.4401V169.718C33.4401 187.825 40.6697 195.887 56.9363 195.887C66.511 195.887 75.3944 192.872 75.3944 192.872V174.539C75.3944 174.539 67.975 177.165 61.5587 177.165C58.1382 177.165 55.3096 176.554 55.3096 169.053V140.295H82.8725L96.9341 194.565H119.283L129.341 156.26L139.282 194.565H161.63L180.328 122.894H160.383L149.819 163.933L139.047 122.894H119.617L108.895 164.028L98.1632 122.894H55.2961V96.8707L33.4401 107.368ZM186.753 107.907C187.248 110.019 188.298 111.96 189.793 113.529C191.288 115.098 193.175 116.239 195.258 116.833C197.341 117.427 199.544 117.452 201.64 116.907C203.736 116.362 205.649 115.266 207.18 113.732C208.712 112.198 209.806 110.281 210.35 108.182C210.894 106.082 210.869 103.874 210.276 101.788C209.683 99.7012 208.545 97.8111 206.978 96.3132C205.412 94.8152 203.474 93.7637 201.366 93.2675C200.454 93.0608 199.522 92.9561 198.587 92.9551C196.758 92.9583 194.953 93.3747 193.306 94.1732C191.66 94.9717 190.214 96.1318 189.077 97.5673C187.94 99.0028 187.14 100.677 186.738 102.464C186.335 104.252 186.341 106.108 186.753 107.893V107.907ZM221.69 102.461V194.552H243.546V92L221.69 102.461ZM255.723 102.461V194.552H277.584V92L255.723 102.461Z" fill="#C8C8C8"/>
<path d="M187.657 194.551H209.513V184.059L187.657 194.551ZM221.69 178.215V194.556H243.546V167.727L221.69 178.215ZM255.723 161.878V194.556H277.584V151.385L255.723 161.878Z" fill="#C8C8C8"/>
</g>
<defs>
<clipPath id="clip0_1_6">
<rect width="277" height="150" fill="white" transform="translate(11 92)"/>
</clipPath>
</defs>
</svg>
