<svg width="300" height="300" viewBox="0 0 300 300" fill="none" xmlns="http://www.w3.org/2000/svg">
<g clip-path="url(#clip0_0_111)">
<path fill-rule="evenodd" clip-rule="evenodd" d="M92.2627 150.124C96.9379 150.124 101.324 151.308 105.134 153.394C105.246 153.236 105.356 153.078 105.465 152.918C110.378 155.719 114.284 160.03 116.523 165.206L116.502 165.218C116.577 165.372 116.651 165.527 116.723 165.682C117.144 166.713 117.5 167.776 117.785 168.868C117.842 168.872 117.898 168.877 117.955 168.881C118.715 171.329 119.122 173.931 119.122 176.632C119.122 183.874 116.167 190.448 111.388 195.204C115.035 199.359 120.39 202 126.38 202C137.349 202 146.251 193.173 146.251 182.296C146.251 174.273 141.408 167.366 134.464 164.293C140.722 159.838 144.791 152.607 144.791 144.445C144.791 130.895 133.6 119.923 119.794 119.923C115.477 119.923 111.415 120.997 107.871 122.887C102.895 112.326 92.0089 105 79.3769 105C62.0458 105 48 118.792 48 135.808C48 144.004 51.2634 151.456 56.5839 156.976L53.3182 174.286H63.9471L65.9432 163.831L69.1464 174.286H80.0822L75.8305 163.224C78.1366 162.735 79.9268 161.702 81.2002 160.127C82.4641 158.545 83.1 156.548 83.1 154.161C83.1 153.323 83.0035 152.545 82.8107 151.826C85.7466 150.726 88.933 150.124 92.2627 150.124ZM82.8107 151.826C82.3517 150.114 81.3467 148.739 79.7966 147.709C77.6009 146.245 74.3717 145.505 70.1144 145.505H58.7478L56.5839 156.976C59.8554 160.37 63.9048 163.034 68.4515 164.692C71.3922 158.81 76.5281 154.179 82.8107 151.826ZM83.1 174.286L88.4426 145.505H99.0545L93.7266 174.286H83.1ZM100.118 174.286L105.572 145.505H116.42L119.821 154.649C119.871 154.796 119.957 155.011 120.064 155.319C120.813 157.307 121.345 159.029 121.642 160.488L124.491 145.505H135.218L129.749 174.286H118.911L113.432 159.422C113.381 160.772 113.394 161.826 112.525 165.995L110.97 174.286H100.118ZM159.628 174.286H143.084C135.951 174.286 132.934 171.591 134.604 163.376L136.073 156.093C137.532 148.927 141.193 145.505 150.325 145.505H165L163.466 153.33H150.089C148.077 153.33 147.233 153.99 146.815 156.093L145.451 163.376C145.03 165.644 145.533 166.486 147.695 166.486H152.376L152.986 163.376H149.188L150.581 156.093H162.999L159.628 174.286Z" fill="#C8C8C8"/>
<path fill-rule="evenodd" clip-rule="evenodd" d="M271 175L276.47 146H287.914C292.193 146 295.459 146.745 297.672 148.22C299.888 149.695 301 151.869 301 154.721C301 157.127 300.359 159.139 299.086 160.733C297.808 162.32 295.994 163.361 293.671 163.854L297.955 175H286.934L283.708 164.465L281.706 175H271ZM284.746 158.858H285.535C287.177 158.858 288.378 158.592 289.146 158.074C289.918 157.557 290.302 156.743 290.302 155.647C290.302 154.809 289.999 154.183 289.384 153.793C288.768 153.409 287.787 153.211 286.45 153.211H285.822L284.746 158.858Z" fill="#C8C8C8"/>
<path fill-rule="evenodd" clip-rule="evenodd" d="M245 175L250.508 146H271L269.526 153.867H259.796L259.246 156.654H268.402L267.021 163.998H257.875L257.286 167.135H267.889L266.412 175H245Z" fill="#C8C8C8"/>
<path fill-rule="evenodd" clip-rule="evenodd" d="M229 175L234.353 146H245L239.653 175H229Z" fill="#C8C8C8"/>
<path fill-rule="evenodd" clip-rule="evenodd" d="M204 175L209.502 146H230L228.526 153.867H218.79L218.242 156.654H227.402L226.015 163.998H216.875L216.281 167.135H226.884L225.396 175H204Z" fill="#C8C8C8"/>
<path fill-rule="evenodd" clip-rule="evenodd" d="M163 175L171.681 146H182.226C182.226 146 182.812 149.435 183.193 155.391C183.258 156.395 183.479 160.628 183.479 161.768L190.42 146H201L199.63 175H189.967L190.952 159.716C190.696 160.434 188.969 164.988 188.595 165.811L184.322 175H178.362L176.745 159.953C176.656 160.698 175.648 164.965 175.412 165.788L172.826 175H163Z" fill="#C8C8C8"/>
<path fill-rule="evenodd" clip-rule="evenodd" d="M28 175L33.5121 146H54L52.5312 153.867H42.8014L42.2465 156.654H51.4134L50.0262 163.998H40.8801L40.286 167.135H50.9009L49.4113 175H28Z" fill="#C8C8C8"/>
<path fill-rule="evenodd" clip-rule="evenodd" d="M6.0511 175L1 146H11.802L12.9024 155.08C13.0349 156.279 13.1402 157.433 13.2064 158.543C13.287 159.642 13.4251 161.148 13.4354 162.217C13.7291 161.172 20.7695 146 20.7695 146H32L15.7264 175H6.0511Z" fill="#C8C8C8"/>
<path fill-rule="evenodd" clip-rule="evenodd" d="M18.0521 184L20.1262 189.619C20.4756 190.529 20.7598 191.355 20.978 192.182H21.0432C21.2834 191.355 21.5896 190.529 21.9389 189.619L23.991 184H26L21.8518 194H20.0171L16 184H18.0521Z" fill="#C8C8C8"/>
<path fill-rule="evenodd" clip-rule="evenodd" d="M35.2085 188.487C35.2297 187.267 34.7235 185.372 32.6372 185.372C30.7608 185.372 29.9393 187.158 29.7915 188.487H35.2085ZM29.7703 189.859C29.8127 192.451 31.4148 193.518 33.2692 193.518C34.5969 193.518 35.3979 193.279 36.0936 192.974L36.4096 194.346C35.7564 194.651 34.6394 195 33.0161 195C29.8756 195 28 192.865 28 189.685C28 186.505 29.8127 184 32.7842 184C36.1149 184 37 187.027 37 188.966C37 189.358 36.9583 189.663 36.9371 189.859H29.7703Z" fill="#C8C8C8"/>
<path fill-rule="evenodd" clip-rule="evenodd" d="M42.0821 187.6C42.0821 186.333 42.0614 185.244 42 184.245H43.584L43.6462 186.356H43.7283C44.1811 184.911 45.2717 184 46.4858 184C46.6915 184 46.8358 184.023 47 184.067V185.911C46.815 185.867 46.6301 185.845 46.383 185.845C45.1074 185.845 44.2018 186.889 43.9547 188.356C43.9133 188.622 43.8726 188.933 43.8726 189.267V195H42.0821V187.6Z" fill="#C8C8C8"/>
<path fill-rule="evenodd" clip-rule="evenodd" d="M51.9286 189.465H51.9733C52.2386 189.106 52.6156 188.663 52.9264 188.303L56.0736 184.775H58.423L54.278 188.979L59 195H56.6274L52.9264 190.099L51.9286 191.155V195H50V180H51.9286V189.465Z" fill="#C8C8C8"/>
<path fill-rule="evenodd" clip-rule="evenodd" d="M69.2085 188.487C69.2297 187.267 68.7235 185.372 66.6372 185.372C64.7608 185.372 63.9393 187.158 63.7915 188.487H69.2085ZM63.7703 189.859C63.8127 192.451 65.4148 193.518 67.2692 193.518C68.5969 193.518 69.3979 193.279 70.0936 192.974L70.4096 194.346C69.7564 194.651 68.6394 195 67.0161 195C63.8756 195 62 192.865 62 189.685C62 186.505 63.8127 184 66.7842 184C70.1149 184 71 187.027 71 188.966C71 189.358 70.9583 189.663 70.9371 189.859H63.7703Z" fill="#C8C8C8"/>
<path fill-rule="evenodd" clip-rule="evenodd" d="M81.2085 188.487C81.2297 187.267 80.7235 185.372 78.6372 185.372C76.7608 185.372 75.9393 187.158 75.7915 188.487H81.2085ZM75.7703 189.859C75.8127 192.451 77.4148 193.518 79.2692 193.518C80.5969 193.518 81.3979 193.279 82.0936 192.974L82.4096 194.346C81.7564 194.651 80.6394 195 79.0161 195C75.8756 195 74 192.865 74 189.685C74 186.505 75.8127 184 78.7842 184C82.1149 184 83 187.027 83 188.966C83 189.358 82.9583 189.663 82.9371 189.859H75.7703Z" fill="#C8C8C8"/>
<path fill-rule="evenodd" clip-rule="evenodd" d="M87.0821 187.6C87.0821 186.333 87.0614 185.244 87 184.245H88.584L88.6462 186.356H88.7283C89.1811 184.911 90.2717 184 91.4858 184C91.6915 184 91.8358 184.023 92 184.067V185.911C91.815 185.867 91.6301 185.845 91.383 185.845C90.1074 185.845 89.2018 186.889 88.9547 188.356C88.9133 188.622 88.8726 188.933 88.8726 189.267V195H87.0821V187.6Z" fill="#C8C8C8"/>
<path fill-rule="evenodd" clip-rule="evenodd" d="M95.4165 192.822C95.9085 193.192 96.7795 193.584 97.6118 193.584C98.8231 193.584 99.3913 192.887 99.3913 192.016C99.3913 191.101 98.9184 190.6 97.688 190.077C96.0412 189.402 95.2647 188.356 95.2647 187.093C95.2647 185.394 96.4576 184 98.4256 184C99.3532 184 100.167 184.305 100.678 184.653L100.262 186.048C99.9024 185.786 99.2395 185.438 98.3882 185.438C97.4035 185.438 96.8551 186.091 96.8551 186.875C96.8551 187.747 97.4035 188.138 98.5965 188.661C100.186 189.359 101 190.273 101 191.841C101 193.692 99.7506 195 97.5744 195C96.5713 195 95.6438 194.716 95 194.281L95.4165 192.822Z" fill="#C8C8C8"/>
<path fill-rule="evenodd" clip-rule="evenodd" d="M157.086 187.155C157.086 186.045 157.064 185.133 157 184.244H158.661L158.748 185.977H158.813C159.395 184.956 160.367 184 162.094 184C163.518 184 164.597 184.888 165.05 186.155H165.094C165.417 185.555 165.828 185.089 166.259 184.755C166.885 184.267 167.575 184 168.569 184C169.95 184 172 184.933 172 188.666V195H170.144V188.911C170.144 186.844 169.411 185.6 167.878 185.6C166.798 185.6 165.957 186.422 165.633 187.378C165.547 187.645 165.482 187.999 165.482 188.355V195H163.626V188.556C163.626 186.844 162.892 185.6 161.446 185.6C160.259 185.6 159.395 186.577 159.094 187.556C158.986 187.844 158.942 188.177 158.942 188.511V195H157.086V187.155Z" fill="#C8C8C8"/>
<path fill-rule="evenodd" clip-rule="evenodd" d="M181.831 189.391C179.593 189.348 177.051 189.717 177.051 191.761C177.051 193 177.937 193.587 178.987 193.587C180.456 193.587 181.389 192.717 181.715 191.826C181.784 191.63 181.831 191.413 181.831 191.217V189.391ZM182.135 194.76L181.971 193.435H181.901C181.271 194.261 180.059 195 178.45 195C176.165 195 175 193.5 175 191.978C175 189.435 177.424 188.044 181.784 188.065V187.847C181.784 186.978 181.528 185.413 179.22 185.413C178.17 185.413 177.075 185.718 176.282 186.195L175.816 184.935C176.749 184.37 178.101 184 179.523 184C182.974 184 183.813 186.195 183.813 188.305V192.239C183.813 193.152 183.86 194.043 184 194.76H182.135Z" fill="#C8C8C8"/>
<path fill-rule="evenodd" clip-rule="evenodd" d="M188.086 187.155C188.086 186.045 188.065 185.133 188 184.244H189.687L189.795 186.022H189.839C190.358 185 191.57 184 193.3 184C194.75 184 197 184.888 197 188.578V195H195.097V188.8C195.097 187.067 194.469 185.622 192.673 185.622C191.418 185.622 190.445 186.533 190.12 187.622C190.033 187.867 189.991 188.2 189.991 188.533V195H188.086V187.155Z" fill="#C8C8C8"/>
<path fill-rule="evenodd" clip-rule="evenodd" d="M207.831 189.391C205.593 189.348 203.051 189.717 203.051 191.761C203.051 193 203.937 193.587 204.987 193.587C206.456 193.587 207.389 192.717 207.715 191.826C207.784 191.63 207.831 191.413 207.831 191.217V189.391ZM208.135 194.76L207.971 193.435H207.901C207.271 194.261 206.059 195 204.45 195C202.165 195 201 193.5 201 191.978C201 189.435 203.424 188.044 207.784 188.065V187.847C207.784 186.978 207.528 185.413 205.22 185.413C204.17 185.413 203.075 185.718 202.282 186.195L201.816 184.935C202.749 184.37 204.101 184 205.523 184C208.974 184 209.813 186.195 209.813 188.305V192.239C209.813 193.152 209.86 194.043 210 194.76H208.135Z" fill="#C8C8C8"/>
<path fill-rule="evenodd" clip-rule="evenodd" d="M220.987 188.304C220.987 187.985 220.965 187.707 220.876 187.452C220.522 186.365 219.571 185.47 218.155 185.47C216.297 185.47 214.969 186.983 214.969 189.369C214.969 191.394 216.031 193.077 218.133 193.077C219.328 193.077 220.412 192.352 220.832 191.159C220.942 190.84 220.987 190.478 220.987 190.157V188.304ZM223 184.234C222.955 184.98 222.912 185.811 222.912 187.068V193.056C222.912 195.421 222.425 196.87 221.385 197.764C220.345 198.702 218.841 199 217.491 199C216.208 199 214.792 198.702 213.929 198.148L214.416 196.72C215.124 197.147 216.23 197.53 217.558 197.53C219.549 197.53 221.009 196.529 221.009 193.929V192.778H220.965C220.367 193.737 219.217 194.505 217.558 194.505C214.903 194.505 213 192.331 213 189.476C213 185.981 215.367 184 217.823 184C219.682 184 220.699 184.937 221.164 185.79H221.208L221.296 184.234H223Z" fill="#C8C8C8"/>
<path fill-rule="evenodd" clip-rule="evenodd" d="M234.208 188.487C234.23 187.267 233.723 185.372 231.637 185.372C229.761 185.372 228.939 187.158 228.792 188.487H234.208ZM228.77 189.859C228.813 192.451 230.415 193.518 232.269 193.518C233.597 193.518 234.398 193.279 235.094 192.974L235.41 194.346C234.756 194.651 233.639 195 232.016 195C228.876 195 227 192.865 227 189.685C227 186.505 228.813 184 231.784 184C235.115 184 236 187.027 236 188.966C236 189.358 235.958 189.663 235.937 189.859H228.77Z" fill="#C8C8C8"/>
<path fill-rule="evenodd" clip-rule="evenodd" d="M240.086 187.155C240.086 186.045 240.064 185.133 240 184.244H241.661L241.748 185.977H241.813C242.395 184.956 243.367 184 245.094 184C246.518 184 247.597 184.888 248.05 186.155H248.094C248.417 185.555 248.827 185.089 249.259 184.755C249.885 184.267 250.575 184 251.569 184C252.95 184 255 184.933 255 188.666V195H253.144V188.911C253.144 186.844 252.411 185.6 250.878 185.6C249.798 185.6 248.957 186.422 248.633 187.378C248.547 187.645 248.482 187.999 248.482 188.355V195H246.626V188.556C246.626 186.844 245.892 185.6 244.446 185.6C243.259 185.6 242.395 186.577 242.094 187.556C241.986 187.844 241.942 188.177 241.942 188.511V195H240.086V187.155Z" fill="#C8C8C8"/>
<path fill-rule="evenodd" clip-rule="evenodd" d="M266.208 188.487C266.23 187.267 265.723 185.372 263.637 185.372C261.761 185.372 260.939 187.158 260.792 188.487H266.208ZM260.77 189.859C260.813 192.451 262.415 193.518 264.269 193.518C265.597 193.518 266.398 193.279 267.094 192.974L267.41 194.346C266.756 194.651 265.639 195 264.016 195C260.876 195 259 192.865 259 189.685C259 186.505 260.813 184 263.784 184C267.115 184 268 187.027 268 188.966C268 189.358 267.958 189.663 267.937 189.859H260.77Z" fill="#C8C8C8"/>
<path fill-rule="evenodd" clip-rule="evenodd" d="M272.086 187.155C272.086 186.045 272.065 185.133 272 184.244H273.687L273.795 186.022H273.839C274.358 185 275.57 184 277.3 184C278.75 184 281 184.888 281 188.578V195H279.097V188.8C279.097 187.067 278.469 185.622 276.673 185.622C275.418 185.622 274.445 186.533 274.12 187.622C274.033 187.867 273.991 188.2 273.991 188.533V195H272.086V187.155Z" fill="#C8C8C8"/>
<path fill-rule="evenodd" clip-rule="evenodd" d="M288.366 182V184.855H291V186.23H288.366V191.591C288.366 192.823 288.721 193.521 289.746 193.521C290.226 193.521 290.581 193.46 290.811 193.398L290.895 194.753C290.54 194.898 289.976 195 289.265 195C288.408 195 287.718 194.733 287.279 194.24C286.756 193.706 286.568 192.823 286.568 191.653V186.23H285V184.855H286.568V182.472L288.366 182Z" fill="#C8C8C8"/>
</g>
<defs>
<clipPath id="clip0_0_111">
<rect width="300" height="300" fill="white"/>
</clipPath>
</defs>
</svg>
